<svg id="Layer_1" data-name="Layer 1" xmlns="http://www.w3.org/2000/svg" viewBox="0 0 637.2 93.82"><defs><style>.cls-1{fill:#59595b;}.cls-2{fill:#0075a8;}</style></defs><title>logos-registered</title><path class="cls-1" d="M218.32,12.25h28.55c13.56,0,22.7,6.57,22.7,19.31,0,10.37-7.09,16.64-14,18.8a20.57,20.57,0,0,1,4.83,6.57c2.88,5.85,4.83,12.32,10.89,12.32a8,8,0,0,0,2.77-.51L272.76,81a33.6,33.6,0,0,1-6.88.92c-8.22,0-12.94-3.18-17.77-14.17-2.05-4.93-4.93-13.56-8.73-13.56h-3.9V81.58H218.32V12.25Zm17.15,12.43v17h6.16c4.93,0,10.68-1.54,10.68-8.93,0-6.06-3.9-8.12-8.63-8.12h-8.22Z"/><path class="cls-1" d="M292.78,12.25h17.36l23.42,69.33H316.2l-4.31-13.15H288.67l-4.21,13.15h-15Zm0,43.45h14.89l-4.72-14.58a67.81,67.81,0,0,1-2.36-11.91h-0.41A87.92,87.92,0,0,1,297.61,41Z"/><path class="cls-1" d="M334.26,12.25h18.39l18.18,34.41c1.54,3,3.59,8.22,5.24,12.32h0.41c-0.2-3.9-.72-9.45-0.72-13.45V12.25h14.07V81.58h-18L353,47.27a96,96,0,0,1-5-11.3h-0.41c0.31,3.9.82,8.53,0.82,12.32V81.58H334.26V12.25Z"/><path class="cls-1" d="M393.52,46.45c0-25.06,12.43-35.44,31.63-35.44,20.23,0,28.35,11.09,26.09,26.09l-16,1.44c1.75-11-2.57-15.41-10.37-15.41-7.5,0-13.56,5.55-13.56,23.42,0,18.9,6.57,23.73,14.07,23.73,7.09,0,12.84-4.42,11.61-13.46l15,1.54c1.13,14.07-9,24.44-27.53,24.44-18.8,0-30.92-11.09-30.92-36.36"/><polygon class="cls-1" points="455.44 12.25 472.59 12.25 472.59 38.44 493.65 38.44 493.65 12.25 510.8 12.25 510.8 81.58 493.65 81.58 493.65 52.2 472.59 52.2 472.59 81.58 455.44 81.58 455.44 12.25"/><polygon class="cls-1" points="517.67 12.25 563.58 12.25 563.58 24.98 534.83 24.98 534.83 39.88 558.96 39.88 558.96 52.61 534.83 52.61 534.83 68.84 564.61 68.84 564.61 81.58 517.67 81.58 517.67 12.25"/><path class="cls-1" d="M567.89,12.25h28.55c13.56,0,22.7,6.57,22.7,19.31,0,10.37-7.09,16.64-14,18.8A20.56,20.56,0,0,1,610,56.93c2.88,5.85,4.83,12.32,10.89,12.32a8,8,0,0,0,2.77-.51L622.33,81a33.62,33.62,0,0,1-6.88.92c-8.22,0-12.94-3.18-17.77-14.17-2.05-4.93-4.93-13.56-8.73-13.56H585V81.58H567.89V12.25ZM585,24.67v17h6.16c4.93,0,10.68-1.54,10.68-8.93,0-6.06-3.9-8.12-8.63-8.12H585Z"/><path class="cls-2" d="M201.28,20.6l-2.17-13C198.42,3.42,196.79,0,195.5,0s-2.35,3.46-2.35,7.7v3.4a7.72,7.72,0,0,1-7.7,7.7H182l-0.73,0v9.35l0.73,0h12.8a6.32,6.32,0,0,0,6.43-7.59"/><path class="cls-2" d="M170.6,9.59H149.84l-0.51,0H128a4.7,4.7,0,0,0-.73.06v-2c0-4.23-1.06-7.7-2.35-7.7S122,3.42,121.32,7.59l-2.17,13a6.32,6.32,0,0,0,6.43,7.59h12.8a11.68,11.68,0,0,0,3.65-.57,4.7,4.7,0,0,1-4.62,3.83h-18A4.7,4.7,0,0,1,114.83,26l1.82-10.9A4.7,4.7,0,0,0,112,9.62H22.68a4.7,4.7,0,0,0-4.28,2.76L1.58,38a1.17,1.17,0,0,0,.09,1.4l3.27,3.85a1.17,1.17,0,0,0,1.62.16l11.43-9V89.12a4.7,4.7,0,0,0,4.7,4.7H48a4.7,4.7,0,0,0,4.7-4.7v-19a4.7,4.7,0,0,1,4.7-4.7h63.31a4.7,4.7,0,0,1,4.7,4.7v19a4.7,4.7,0,0,0,4.7,4.7h25.36a4.7,4.7,0,0,0,4.7-4.7V68.63H146.75a7.72,7.72,0,0,1-7.7-7.7V47.75a7.69,7.69,0,0,1,3.09-6.15V57.33a7.72,7.72,0,0,0,7.7,7.7H170.6a7.72,7.72,0,0,0,7.7-7.7v-40a7.72,7.72,0,0,0-7.7-7.7"/><path class="cls-1" d="M625.87,16.63a5.59,5.59,0,1,1,11.19,0A5.59,5.59,0,0,1,625.87,16.63Zm9.84,0c0-3.07-2-4.42-4.25-4.42a4.07,4.07,0,0,0-4.3,4.42,4,4,0,0,0,4.3,4.37A4,4,0,0,0,635.71,16.61Zm-6.1-2.78h2c1,0,2,.29,2,1.7A1.44,1.44,0,0,1,632.27,17l1.32,2.26h-1.2l-1.22-2.18h-0.48v2.18h-1.08V13.82Zm2.06,2.47a0.8,0.8,0,0,0,.86-0.79,0.73,0.73,0,0,0-.86-0.72h-1v1.51h1Z"/></svg>